# xmcd
#
# Track frame offsets:
#	150
#	12942
#	24263
#	37623
#	51306
#	64323
#	75068
#	87035
#	98908
#	111706
#	123571
#	137023
#	148863
#	160450
#	173330
#	186626
#	198080
#	210126
#	221529
#	232879
#
# Disc length: 3264 seconds
#
# Revision: 2
# Processed by: cddbd v1.5.1PL0 Copyright (c) Steve Scherf et al.
# Submitted via: EasyCDDAExtractor 8.1.4.1
#
DISCID=060cbe14
DTITLE=Robert Johnson - The Complete Recording [CD 1)
DYEAR=1990
DGENRE=Blues
TTITLE0=Kindhearted Woman Blues
TTITLE1=Kindhearted Woman Blues
TTITLE2=I Believe I'll Dust my Broom
TTITLE3=Sweet Home Chicago
TTITLE4=Rambling on my Mind
TTITLE5=Rambling on my Mind
TTITLE6=When You Got a Good Friend
TTITLE7=When You Got a Good Friend
TTITLE8=Come on in My Kitchen
TTITLE9=Come on in My Kitchen
TTITLE10=Terraplane Blues
TTITLE11=Phonograph Blues
TTITLE12=Phonograph Blues
TTITLE13=30-20 Blues
TTITLE14=They're Red Hot
TTITLE15=Dead Shrimp Blues
TTITLE16=Cross Road Blues
TTITLE17=Cross Road Blues
TTITLE18=Walking Blues
TTITLE19=Last Fair Deal Gone Down
EXTD=
EXTT0=
EXTT1=
EXTT2=
EXTT3=
EXTT4=
EXTT5=
EXTT6=
EXTT7=
EXTT8=
EXTT9=
EXTT10=
EXTT11=
EXTT12=
EXTT13=
EXTT14=
EXTT15=
EXTT16=
EXTT17=
EXTT18=
EXTT19=
PLAYORDER=
